<svg version="1.1" id="Layer_1" xmlns="http://www.w3.org/2000/svg" xmlns:xlink="http://www.w3.org/1999/xlink" x="0px" y="0px"
	 width="100%" viewBox="0 0 1024 1024" enable-background="new 0 0 1024 1024" xml:space="preserve">
<path fill="#000000" opacity="1.000000" stroke="none" 
	d="
M130.295456,819.683228 
	C99.400398,782.078918 74.801216,741.023132 55.868240,696.653442 
	C46.724239,675.224365 39.524796,653.040466 33.592411,630.465149 
	C27.786818,608.372314 23.492956,585.985596 21.246563,563.287109 
	C18.174919,532.249878 17.763577,501.172302 20.437723,470.011139 
	C22.605837,444.746674 26.532412,419.777863 32.262329,395.175903 
	C37.390560,373.157349 44.660286,351.680420 53.086338,330.639496 
	C71.179405,285.458923 95.609474,243.952255 125.975586,206.005508 
	C151.268158,174.398911 180.271454,146.584457 212.508255,121.975746 
	C243.140198,98.592133 275.936005,79.033836 310.992004,63.252903 
	C342.795868,48.935974 375.884888,38.364964 409.998322,31.072203 
	C452.740631,21.934757 496.046051,19.135838 539.585815,21.070522 
	C567.216309,22.298281 594.527527,26.819178 621.480835,33.158566 
	C687.142700,48.602219 747.491638,75.855080 801.974365,115.624352 
	C844.382629,146.579987 881.116150,183.317276 912.113831,225.832291 
	C936.809631,259.703888 956.610046,296.202698 971.842163,335.128143 
	C981.427368,359.623138 988.815918,384.863586 994.402527,410.637726 
	C999.066772,432.156525 1002.188843,453.934906 1003.712646,475.782013 
	C1005.471558,501.000244 1005.399780,526.353699 1002.986023,551.641052 
	C1000.720886,575.371399 997.129333,598.848877 991.526001,622.015259 
	C984.939209,649.248291 976.108215,675.710083 965.126099,701.513916 
	C942.220032,755.334290 910.213562,803.123230 869.889648,845.297302 
	C820.283813,897.179016 762.332764,936.893738 695.548767,963.661255 
	C662.653076,976.846130 628.826477,986.493286 594.005188,992.801270 
	C557.615479,999.393494 520.912537,1001.244324 484.057953,998.989868 
	C450.266846,996.922729 416.824188,991.971069 384.138763,983.045166 
	C322.074158,966.096436 265.183716,938.539429 213.907516,899.413147 
	C192.780914,883.292480 172.980347,865.777344 154.482803,846.780701 
	C146.127014,838.199524 138.495621,828.913025 130.295456,819.683228 
M263.861023,113.386543 
	C236.724731,130.477081 211.293442,149.786392 187.761734,171.599258 
	C168.280273,189.657730 150.891602,209.510468 134.786377,230.648895 
	C118.465851,252.069901 103.946823,274.612366 91.775146,298.511993 
	C69.277016,342.688049 53.559544,389.171082 45.804550,438.345490 
	C40.405773,472.579071 38.583893,506.843506 41.085987,541.365845 
	C43.268723,571.481750 48.463268,601.077759 56.164097,630.280212 
	C62.809006,655.478577 72.065643,679.711609 82.805199,703.366760 
	C97.044090,734.729675 115.196404,763.732056 135.897980,791.299988 
	C161.525085,825.427185 191.707245,854.839600 225.450623,880.689880 
	C272.772827,916.942749 325.226715,943.092896 382.508118,959.661926 
	C412.686493,968.391235 443.476929,973.968811 474.691345,976.462708 
	C495.220428,978.103027 515.872986,978.297424 536.576843,977.127930 
	C571.160583,975.174255 605.119934,969.709778 638.299072,960.246216 
	C678.778870,948.700439 717.235840,932.219116 753.472534,910.463379 
	C785.669189,891.133240 815.029907,868.255859 841.901672,842.233276 
	C878.676453,806.620667 908.981384,766.167175 932.063416,720.252808 
	C952.094299,680.407593 966.433289,638.809387 975.178955,595.101440 
	C983.052368,555.752930 984.585938,516.155212 981.828308,476.277344 
	C979.649902,444.777222 973.752380,413.944580 965.047119,383.606232 
	C946.294312,318.252197 914.933411,259.679993 870.575500,208.161514 
	C857.420593,192.883057 843.102051,178.718246 828.021912,165.262344 
	C806.328979,145.905930 783.373291,128.394867 758.622620,113.104332 
	C726.570923,93.303368 692.568665,77.837448 656.890686,65.989456 
	C617.977600,53.067131 577.914490,45.760422 537.044006,43.426579 
	C500.009186,41.311764 463.141937,43.844498 426.647003,50.584450 
	C398.119812,55.852909 370.283295,63.676258 343.181335,74.131897 
	C315.756775,84.712006 289.456360,97.501419 263.861023,113.386543 
z"/>
<path fill="#000000" opacity="1.000000" stroke="none" 
	d="
M661.897095,641.934814 
	C642.648438,653.476379 622.776306,662.589294 601.393188,668.454651 
	C591.604614,671.139648 581.877869,673.918213 571.807495,675.247437 
	C569.411377,675.563721 568.986145,676.553406 568.962769,678.836609 
	C568.832642,691.559143 571.040344,704.031799 572.634521,716.574890 
	C573.284485,721.688477 573.703125,726.831360 574.245850,731.958923 
	C574.603699,735.338623 573.109192,736.955017 569.709900,736.935669 
	C562.210571,736.892822 554.710571,736.846375 547.211487,736.896301 
	C543.517212,736.920898 542.210510,734.487671 541.769226,731.535706 
	C540.342712,721.993225 538.503967,712.453796 537.995728,702.851135 
	C537.582703,695.046753 534.673828,687.926392 533.631042,680.359070 
	C533.323608,678.127625 531.474731,678.102295 529.775391,678.124634 
	C501.559479,678.495361 474.077240,673.097412 446.897156,666.511841 
	C438.698700,664.525391 430.445892,661.453552 422.294830,659.000305 
	C413.131256,656.242310 403.892670,653.456604 394.645050,650.834412 
	C369.251343,643.633972 345.830597,632.184509 324.120514,617.313477 
	C318.171600,613.238525 311.554657,610.571045 305.511078,606.703613 
	C285.524414,593.913635 269.861389,576.860962 255.849640,558.055542 
	C246.854965,545.983582 239.546310,532.963684 233.803406,519.042542 
	C228.873276,507.091583 227.040024,494.414856 224.777588,481.828064 
	C221.481232,463.489105 222.022446,444.965973 223.018906,426.548126 
	C223.641953,415.032013 225.805588,403.532867 227.163406,392.051239 
	C228.099197,384.138153 230.158875,376.469269 231.324585,368.651276 
	C232.998642,357.423981 234.589294,346.057892 237.765091,334.993103 
	C240.265808,326.280365 241.174744,317.110321 242.778870,308.141266 
	C243.012909,306.832672 243.065292,305.482330 243.396835,304.201782 
	C249.934433,278.950165 257.943176,254.141632 266.178589,229.410004 
	C272.049408,211.779449 283.445435,197.418610 293.551025,182.117325 
	C303.683899,166.774750 317.202362,155.249908 329.840515,142.597214 
	C330.545197,141.891754 331.218964,140.921387 332.087372,140.648926 
	C343.799347,136.974869 349.777863,125.999176 359.101349,119.190254 
	C368.453003,112.360786 378.379791,107.838158 389.000305,103.969162 
	C400.429810,99.805458 411.943054,96.630081 424.124847,95.200516 
	C429.538879,94.565170 435.034637,92.597969 440.605804,91.677826 
	C442.041107,91.440765 443.721283,90.949974 444.704193,89.981979 
	C453.318970,81.497673 464.115906,83.471703 474.387207,84.001633 
	C483.350311,84.464073 492.451385,84.775383 501.233429,86.256783 
	C514.311829,88.462929 527.440125,90.532944 540.450317,93.176369 
	C572.653198,99.719421 603.535706,110.604408 634.277832,121.923225 
	C638.281189,123.397179 640.732971,126.436821 640.010437,130.785202 
	C639.282288,135.167480 636.199280,137.894577 631.733643,138.193939 
	C625.354370,138.621613 619.326416,136.151627 613.078613,135.360443 
	C611.139771,135.114914 609.301147,133.961578 607.150208,134.751495 
	C606.828369,136.930069 608.842102,137.356094 609.931274,138.355759 
	C618.257202,145.997482 627.347473,152.722214 635.757568,160.322601 
	C644.022400,167.791687 653.204224,174.643509 663.358887,179.867172 
	C670.340332,183.458466 675.970703,189.099106 682.305664,193.687515 
	C696.527710,203.988495 708.850708,216.295639 719.566162,230.133133 
	C730.390320,244.111084 740.087463,258.848480 746.408569,275.513947 
	C750.519836,286.353058 754.583252,297.215057 758.396667,308.161316 
	C763.449463,322.664917 765.882874,337.723236 767.840088,352.926575 
	C770.457764,373.261017 773.943726,393.802826 771.620667,414.077820 
	C769.253967,434.733215 771.655212,455.539795 767.513977,476.089935 
	C764.702393,490.042145 763.085632,504.261475 759.993530,518.199585 
	C756.407104,534.365601 748.664001,548.639526 740.187256,562.653992 
	C728.237732,582.410034 713.836731,600.151550 696.771606,615.626526 
	C686.062622,625.337708 675.335754,635.168457 661.897095,641.934814 
M315.778137,285.299347 
	C316.653015,271.744873 315.869446,258.240143 318.226105,244.576752 
	C320.672577,230.392685 318.154297,215.544662 319.599579,200.768143 
	C312.996124,208.782104 306.698425,216.871048 301.070557,225.401901 
	C295.154724,234.369263 292.907166,244.776596 289.710571,254.954041 
	C285.138702,269.510254 279.482452,283.775055 275.019257,298.433685 
	C270.856354,312.106018 267.047974,325.895905 265.356842,340.051331 
	C263.975861,351.610291 261.455566,362.938873 259.726624,374.417389 
	C257.501343,389.191498 254.261047,403.821564 251.184204,418.456085 
	C248.156097,432.858795 249.512772,447.288269 250.339050,461.732391 
	C251.053772,474.226288 253.005249,486.600159 256.782806,498.463531 
	C263.155823,518.477905 272.791748,536.746521 287.590149,552.110168 
	C296.578918,561.442200 304.814362,571.230835 316.144989,578.289246 
	C323.485626,582.862122 331.453827,586.217590 338.544983,591.206543 
	C357.580872,604.599121 378.044525,615.438049 400.220856,622.545959 
	C416.787781,627.855896 433.610046,632.375854 450.452087,636.847900 
	C474.207062,643.155640 498.066650,647.608887 522.540649,648.808044 
	C554.522827,650.375122 585.248901,645.196472 615.138123,633.161865 
	C642.847473,622.004761 667.339111,606.535645 687.497864,584.609253 
	C705.290710,565.256165 719.219055,543.186768 730.407471,519.407471 
	C731.320923,517.466125 732.030884,515.351746 732.394775,513.241821 
	C734.471191,501.201141 738.825134,489.538940 739.194641,477.248993 
	C739.559998,465.096649 743.251953,453.413757 743.038574,441.142334 
	C742.488892,409.525909 742.557983,378.003845 737.458801,346.543640 
	C734.205566,326.472412 729.170044,307.143646 720.887817,288.887451 
	C714.543396,274.902649 707.210022,261.080658 696.655273,249.502975 
	C682.754761,234.255371 669.990540,218.275269 650.583252,208.514542 
	C637.430908,201.899689 624.581604,193.387253 613.716553,182.978302 
	C601.241028,171.026428 586.268494,166.705032 569.668518,166.098663 
	C569.138123,166.079300 568.305847,165.699448 568.242371,167.115158 
	C577.217712,172.235321 586.312622,177.410492 596.097778,181.217453 
	C601.495117,183.317307 604.770996,188.686066 603.178162,193.293976 
	C601.556946,197.984116 596.227600,200.362198 590.725586,198.336761 
	C574.886841,192.506149 558.445312,189.041153 541.965027,185.787582 
	C536.881714,184.784027 531.739685,183.425766 526.376099,183.684906 
	C526.553040,185.267746 527.691711,185.382095 528.513062,185.843979 
	C537.232483,190.747330 545.734802,196.003586 553.845520,201.858978 
	C560.160400,206.417908 562.022705,212.121674 558.932861,216.669785 
	C555.901917,221.131180 550.887939,221.244583 543.864075,216.995407 
	C524.722961,205.415741 504.266235,196.508118 483.807465,187.635284 
	C480.046387,186.004150 475.999146,184.604111 471.248383,184.526657 
	C473.474121,187.231613 475.984253,188.587891 478.514343,189.761505 
	C487.318176,193.845306 494.810852,200.093445 503.377594,204.592850 
	C508.428497,207.245621 509.772491,213.061966 507.083527,217.390305 
	C504.621918,221.352661 498.406433,223.073746 494.240814,220.190720 
	C484.475830,213.432281 473.345459,209.060547 463.610352,202.321899 
	C452.984131,194.966476 441.120422,190.158798 429.372559,185.067184 
	C424.961090,183.155243 420.907745,182.643799 416.799347,185.966354 
	C413.820831,188.375137 410.237732,188.428589 406.920166,186.553162 
	C403.658508,184.709366 401.964539,186.085510 400.746368,188.991211 
	C399.459137,192.061646 398.390564,195.240280 396.893799,198.203613 
	C387.994019,215.823380 387.386536,235.478851 383.648712,254.280304 
	C381.374359,265.720581 382.913910,277.875549 382.077545,289.662476 
	C381.617950,296.139771 383.738617,299.536469 389.814240,301.954010 
	C398.116333,305.257416 406.575928,308.663239 412.882629,315.522400 
	C426.681030,330.529449 432.693726,348.739349 434.020386,368.613434 
	C434.830688,380.752136 433.360779,392.891418 432.218201,404.988617 
	C431.132721,416.481079 433.384277,427.686584 436.518982,438.455109 
	C440.308228,451.472229 441.443451,463.912048 435.120453,476.238922 
	C428.164154,489.800385 417.724609,500.395844 406.210968,510.182526 
	C401.189301,514.450989 395.829163,516.220032 389.660278,515.215576 
	C376.121826,513.011230 362.697235,515.604797 349.345490,516.546143 
	C337.738892,517.364502 327.796844,515.493347 318.204041,509.189880 
	C299.944000,497.191254 289.503387,480.089508 288.212952,458.735260 
	C287.138092,440.948669 286.740173,423.411713 282.057983,405.921448 
	C278.409027,392.290741 280.527863,377.783966 281.294220,363.662292 
	C282.098816,348.836395 288.641174,336.638702 298.649445,325.982117 
	C302.778168,321.585968 307.315186,317.687561 311.983826,313.931519 
	C314.237640,312.118286 315.033997,310.126404 315.349152,307.186340 
	C316.099274,300.188995 314.693970,293.196320 315.778137,285.299347 
M347.254028,352.362946 
	C346.181915,348.442719 344.194580,344.533630 339.898773,344.694885 
	C335.326843,344.866516 333.710510,349.215027 332.825714,353.235168 
	C332.185303,356.144897 332.405640,359.302216 331.443115,362.071411 
	C329.073700,368.888153 331.226776,374.865875 334.319000,380.669342 
	C336.259216,384.310699 339.099030,387.460999 343.706604,386.832184 
	C348.554596,386.170502 348.649750,381.683380 349.706207,378.082306 
	C352.235718,369.460480 349.541138,361.318604 347.254028,352.362946 
M394.696747,458.040649 
	C393.029755,462.631836 388.914185,466.626160 391.134583,473.253204 
	C397.996307,469.161713 404.102905,464.720825 406.339752,457.780457 
	C408.278992,451.763458 407.217957,445.075653 401.703644,439.268463 
	C398.064331,445.288361 398.011688,451.904785 394.696747,458.040649 
M388.576172,338.850037 
	C386.946747,338.266144 385.387512,336.980133 383.094055,338.581360 
	C386.859924,346.250214 387.409576,355.061768 391.586945,362.662262 
	C392.672211,364.636841 393.753143,367.419220 396.634796,366.250214 
	C399.543854,365.070068 401.621277,362.494812 400.600189,359.106659 
	C398.347717,351.632538 395.597107,344.349030 388.576172,338.850037 
z"/>
<path fill="#000000" opacity="1.000000" stroke="none" 
	d="
M553.331421,784.624634 
	C552.574402,781.988831 551.841370,779.768738 551.301636,777.502563 
	C550.270447,773.172424 552.291504,770.112915 556.753296,769.994263 
	C564.743652,769.781799 572.748535,769.826416 580.739807,770.042969 
	C585.876587,770.182129 587.670349,773.989319 588.630859,778.330811 
	C591.864197,792.945740 595.043274,807.572754 598.314392,822.179199 
	C600.564392,832.226013 602.932495,842.246338 605.561584,853.637878 
	C609.308899,842.609497 611.129578,832.507690 613.585693,822.582520 
	C617.301941,807.565186 620.834778,792.502563 624.535034,777.481201 
	C625.940247,771.776489 628.189453,770.068848 634.024536,769.991821 
	C638.688660,769.930237 643.355164,769.974304 648.019714,770.037598 
	C654.205078,770.121521 656.722046,771.985596 658.298645,778.078918 
	C664.010742,800.154846 669.625916,822.255859 675.294128,844.343201 
	C675.994934,847.074158 676.794678,849.779724 678.322693,852.641418 
	C679.662537,846.692078 681.023438,840.747314 682.338257,834.792480 
	C686.570374,815.625916 690.816345,796.462341 694.985352,777.281982 
	C696.022217,772.511780 698.794922,770.023926 703.668762,769.997009 
	C710.333008,769.960083 717.000244,769.875366 723.661316,770.027222 
	C729.361145,770.157166 731.837524,773.334595 730.404968,778.908508 
	C726.014771,795.990173 721.496887,813.039490 716.941040,830.078003 
	C710.793823,853.068054 704.540161,876.029541 698.383728,899.017151 
	C695.985657,907.971436 691.980835,911.156921 682.810730,911.119202 
	C678.478821,911.101379 674.133301,910.846863 669.818726,911.107788 
	C665.439575,911.372681 662.841614,909.350037 661.414551,905.536560 
	C660.603821,903.370178 660.094910,901.085266 659.529236,898.833801 
	C653.811340,876.076233 648.112244,853.313904 642.390259,830.557373 
	C642.236633,829.946472 641.883362,829.385803 641.315430,828.110535 
	C637.219055,844.600403 633.290344,860.399963 629.370117,876.201660 
	C627.206482,884.922791 625.124023,893.664795 622.878296,902.364685 
	C621.303955,908.463257 618.375977,910.438599 612.138611,910.444031 
	C606.981323,910.448486 601.825500,910.843872 596.666870,910.927917 
	C590.209961,911.033142 587.372131,909.089478 585.706970,902.967590 
	C578.240112,875.516052 570.924377,848.023499 563.464172,820.570190 
	C560.235718,808.689514 556.789795,796.867981 553.331421,784.624634 
z"/>
<path fill="#000000" opacity="1.000000" stroke="none" 
	d="
M458.775940,909.419678 
	C434.228363,899.138672 422.243195,880.119934 418.670166,854.873596 
	C416.485931,839.440247 417.403961,824.270813 422.773071,809.619629 
	C431.520691,785.749512 448.679840,771.985229 473.854401,768.256165 
	C501.947998,764.094666 528.981384,776.619263 540.796570,802.171143 
	C554.679138,832.193787 553.675964,862.549805 534.323425,890.354492 
	C524.994385,903.757996 510.440430,910.117065 494.491882,912.994751 
	C482.377350,915.180664 470.644226,913.588867 458.775940,909.419678 
M510.709625,820.837952 
	C506.175293,806.258179 496.061798,798.006409 482.797119,798.063782 
	C470.540527,798.116821 460.102386,806.741455 456.426239,820.707397 
	C452.341614,836.225159 452.781982,851.755676 458.746582,866.779663 
	C462.830261,877.065918 470.830750,882.483459 481.902313,882.749268 
	C493.439453,883.026367 503.038025,878.931274 507.990631,867.958984 
	C514.740845,853.004272 515.292908,837.412842 510.709625,820.837952 
z"/>
<path fill="#000000" opacity="1.000000" stroke="none" 
	d="
M341.742004,867.000000 
	C341.742950,847.019714 341.757294,827.539368 341.736664,808.059082 
	C341.729462,801.256042 341.690308,801.224670 334.688477,801.188416 
	C327.029816,801.148682 319.370758,801.191895 311.712006,801.166382 
	C306.520538,801.149170 303.950226,798.845764 303.792786,793.715637 
	C303.629425,788.393188 303.565826,783.052185 303.818542,777.736450 
	C304.106842,771.671997 306.877594,769.759521 312.942017,770.310547 
	C317.237579,770.700867 321.584778,770.612366 325.908264,770.591431 
	C351.874542,770.465820 377.843689,771.245178 403.808441,770.119019 
	C413.360046,769.704773 415.202087,771.767578 415.201263,781.347595 
	C415.200928,785.676392 415.289917,790.010376 415.110626,794.332581 
	C414.905365,799.281189 412.910370,801.166443 407.905396,801.215210 
	C399.747772,801.294800 391.579010,801.483398 383.434235,801.151855 
	C378.669861,800.957886 377.136627,802.460083 377.172119,807.323669 
	C377.389526,837.125427 377.311523,866.929321 377.324188,896.732544 
	C377.325256,899.229492 377.416809,901.738892 377.208405,904.220825 
	C376.809601,908.970398 374.519104,910.996216 369.741089,911.011780 
	C363.248627,911.032898 356.755951,911.020569 350.263428,910.999878 
	C344.416565,910.981201 341.797943,908.515747 341.742645,902.464539 
	C341.636108,890.810608 341.730560,879.154968 341.742004,867.000000 
z"/>
<path fill="#000000" opacity="1.000000" stroke="none" 
	d="
M546.146240,529.964355 
	C560.479309,528.616028 574.362061,526.642151 588.283203,526.318176 
	C601.506714,526.010376 614.831726,525.990417 628.028015,527.843262 
	C632.792297,528.512268 637.396851,535.732666 635.764343,540.268555 
	C634.854126,542.797852 632.345459,542.780945 630.281189,542.930359 
	C623.484009,543.422546 616.672974,543.745972 609.862976,544.034729 
	C579.482666,545.322876 549.100891,546.575928 518.719666,547.844299 
	C517.862122,547.880127 517.068665,547.763245 516.213318,546.742859 
	C516.687866,543.855774 517.961670,540.818604 517.293518,537.417725 
	C516.911987,535.475708 519.127380,535.026550 520.859497,534.811462 
	C529.246826,533.769958 537.167236,530.281128 546.146240,529.964355 
z"/>
<path fill="#000000" opacity="1.000000" stroke="none" 
	d="
M529.064514,410.047974 
	C533.846924,417.347992 535.181091,424.777496 531.758972,432.591248 
	C526.408081,444.808929 510.581421,446.718964 502.346466,436.239990 
	C495.864746,427.991943 495.443970,417.964355 501.265808,410.484497 
	C509.075439,400.450592 520.451965,400.144958 529.064514,410.047974 
z"/>
<path fill="#000000" opacity="1.000000" stroke="none" 
	d="
M674.509644,429.104736 
	C673.436768,433.277374 671.834229,436.692200 668.922302,439.375946 
	C661.351318,446.353577 651.219177,445.679199 644.247437,437.739441 
	C637.675110,430.254547 638.194153,415.348541 645.269592,408.385376 
	C654.383484,399.416077 667.821960,402.621368 673.200684,415.085236 
	C675.086670,419.455505 675.791870,423.992615 674.509644,429.104736 
z"/>
</svg>